<?xml version="1.0" encoding="UTF-8"?><svg id="Calque_1" xmlns="http://www.w3.org/2000/svg" xmlns:xlink="http://www.w3.org/1999/xlink" viewBox="0 0 57.8 60.69"><defs><linearGradient id="Dégradé_sans_nom_44" x1="2.79" y1="8.73" x2="42.2" y2="53.83" gradientUnits="userSpaceOnUse"><stop offset="0" stop-color="#006fff"/><stop offset="1" stop-color="#00adff"/></linearGradient></defs><path d="M44.84,45.05l-13.83-30.62c-.41-.91-1.26-1.37-2.12-1.37s-1.7.46-2.12,1.37l-13.83,30.62c-.73,1.61.52,3.28,2.1,3.28.28,0,.57-.05.86-.17l12.14-4.74c.27-.11.56-.16.84-.16s.57.05.84.16l12.14,4.74c.29.11.58.17.86.17,1.58,0,2.83-1.67,2.1-3.28ZM30.66,41.07c-.57-.22-1.16-.33-1.77-.33s-1.2.11-1.77.33l-11.65,4.55,13.42-29.7,13.42,29.7-11.65-4.55Z" fill="url(#Dégradé_sans_nom_44)"/></svg>