<?xml version="1.0" encoding="UTF-8"?>
<!-- Generator: Adobe Illustrator 16.0.0, SVG Export Plug-In . SVG Version: 6.00 Build 0)  -->
<!DOCTYPE svg PUBLIC "-//W3C//DTD SVG 1.1//EN" "http://www.w3.org/Graphics/SVG/1.1/DTD/svg11.dtd">
<svg version="1.1" id="Calque_1" xmlns="http://www.w3.org/2000/svg" xmlns:xlink="http://www.w3.org/1999/xlink" x="0px" y="0px" width="603px" height="599px" viewBox="0 0 603 599" enable-background="new 0 0 603 599" xml:space="preserve">
<g>
	<g>
		<defs>
			<path id="SVGID_1_" d="M599.467,298.358c0,164.218-133.129,297.352-297.361,297.352c-164.233,0-297.342-133.134-297.342-297.352     C4.764,134.143,137.872,1,302.105,1C466.338,1,599.467,134.143,599.467,298.358z"/>
		</defs>
		<use xlink:href="#SVGID_1_" overflow="visible" fill="#84BE5D"/>
		<clipPath id="SVGID_2_">
			<use xlink:href="#SVGID_1_" overflow="visible"/>
		</clipPath>
		<g clip-path="url(#SVGID_2_)">
			<path fill="none" d="M444.57,559.418c-0.407,0.224-0.82,0.456-1.244,0.682C443.743,559.874,444.163,559.642,444.57,559.418z"/>
			<path fill="none" d="M441.777,560.92c-7.854,4.104-16.083,8.036-24.719,11.738C425.492,569.117,433.747,565.194,441.777,560.92z"/>
			<path fill="none" d="M279.884,429.426v-85.419c0,0-0.785-5.063-5.601-5.063c-4.853,0-81.476,0-81.476,0     c-46.47-0.399-76.809-29.922-76.809-67.532v-77.499h37.812v78.21c-0.412,12.836,11.639,31.123,32.019,31.123h116.276h116.27     c20.42,0,32.469-18.287,32.045-31.123v-78.21h37.795l111.252,104.445C599.467,134.143,466.338,1,302.105,1     C137.872,1,4.764,134.143,4.764,298.358c0,164.218,133.108,297.352,297.342,297.352c40.623,0,79.332-8.163,114.621-22.897     L279.884,429.426z"/>
			<path fill="none" d="M414.729,338.866c4.08-0.124,8.372-0.559,12.706-1.316c-4.554,0.766-9.376,1.199-14.331,1.316H414.729z"/>
			<path fill="none" d="M450.712,330.208c16.789-8.061,31.291-22.225,35.923-44.444C482.416,304.979,469.66,320.938,450.712,330.208     z"/>
			<path fill="#FFFFFF" d="M488.215,271.412c-0.038,1.804-0.118,3.554-0.273,5.28C488.083,274.946,488.215,273.191,488.215,271.412z     "/>
		</g>
	</g>
	<g>
		<linearGradient id="SVGID_3_" gradientUnits="userSpaceOnUse" x1="355.5039" y1="301.9985" x2="551.1659" y2="466.1785">
			<stop offset="0" style="stop-color:#61AE5B"/>
			<stop offset="0.2078" style="stop-color:#72B65C"/>
			<stop offset="0.5197" style="stop-color:#7FBC5D"/>
			<stop offset="1" style="stop-color:#84BE5D"/>
		</linearGradient>
		<path fill="url(#SVGID_3_)" d="M488.215,271.412c0,1.779-0.132,3.534-0.273,5.28c-0.076,1.022-0.16,2.032-0.299,3.04    c-0.203,1.638-0.434,3.252-0.753,4.847c-0.067,0.399-0.161,0.786-0.255,1.185c-4.632,22.22-19.134,36.384-35.923,44.444    c-0.688,0.333-1.378,0.65-2.075,0.973c-1.207,0.537-2.447,1.041-3.691,1.533c-1.525,0.606-3.106,1.157-4.709,1.675    c-0.656,0.218-1.301,0.427-1.984,0.628c-1.415,0.41-2.848,0.821-4.318,1.17c-1.629,0.402-3.283,0.782-4.974,1.091    c-0.494,0.102-1.007,0.19-1.525,0.272c-4.334,0.758-8.626,1.192-12.706,1.316h-1.625c-0.559,0.007-1.102,0.069-1.664,0.078    c0,0-76.648,0-81.48,0c-4.869,0-5.63,5.063-5.63,5.063v85.419h-22.224h-22.221l136.842,143.387    c0.101-0.055,0.217-0.094,0.332-0.154c8.636-3.702,16.865-7.635,24.719-11.738c0.518-0.28,1.037-0.551,1.549-0.82    c0.424-0.226,0.837-0.458,1.244-0.682c92.298-50.482,154.896-148.453,154.896-261.06L488.215,193.913V271.412z"/>
		<linearGradient id="SVGID_4_" gradientUnits="userSpaceOnUse" x1="153.811" y1="248.5791" x2="262.668" y2="248.5791">
			<stop offset="0" style="stop-color:#61AE5B"/>
			<stop offset="0.1698" style="stop-color:#6CB35C"/>
			<stop offset="0.5734" style="stop-color:#7EBC5D"/>
			<stop offset="1" style="stop-color:#84BE5D"/>
		</linearGradient>
		<path fill="url(#SVGID_4_)" d="M153.811,193.913l108.857,109.333l-77.923-0.02c-15.88-0.213-31.655-14.72-30.857-32.19    L153.811,193.913z"/>
		<path fill="#FFFFFF" d="M324.329,429.426v-85.419c0,0,0.761-5.063,5.63-5.063c4.832,0,81.48,0,81.48,0    c0.562-0.008,1.105-0.071,1.664-0.078c4.955-0.118,9.777-0.551,14.331-1.316c0.519-0.082,1.031-0.17,1.525-0.272    c1.69-0.309,3.345-0.688,4.974-1.091c1.471-0.349,2.903-0.76,4.318-1.17c0.684-0.202,1.328-0.411,1.984-0.628    c1.603-0.518,3.184-1.068,4.709-1.675c1.244-0.492,2.484-0.997,3.691-1.533c0.697-0.323,1.387-0.64,2.075-0.973    c18.948-9.27,31.704-25.229,35.923-44.444c0.094-0.399,0.188-0.785,0.255-1.185c0.319-1.595,0.55-3.209,0.753-4.847    c0.139-1.007,0.223-2.018,0.299-3.04c0.155-1.727,0.235-3.477,0.273-5.28v-77.499H450.42v78.21    c0.424,12.836-11.625,31.123-32.045,31.123h-116.27H185.83c-20.379,0-32.43-18.287-32.019-31.123v-78.21h-37.812v77.499    c0,37.609,30.339,67.133,76.809,67.532c0,0,76.623,0,81.476,0c4.815,0,5.601,5.063,5.601,5.063v85.419h22.221H324.329z"/>
	</g>
</g>
</svg>
