<?xml version="1.0" encoding="UTF-8" standalone="no"?>
<!-- Created with Inkscape (http://www.inkscape.org/) -->

<svg
   xmlns:dc="http://purl.org/dc/elements/1.1/"
   xmlns:cc="http://creativecommons.org/ns#"
   xmlns:rdf="http://www.w3.org/1999/02/22-rdf-syntax-ns#"
   xmlns:svg="http://www.w3.org/2000/svg"
   xmlns="http://www.w3.org/2000/svg"
   version="1.1"
   width="700"
   height="420"
   viewBox="0 0 700 420"
   id="svg2"
   xml:space="preserve"><metadata
     id="metadata7"><rdf:RDF><cc:Work
         rdf:about=""><dc:format>image/svg+xml</dc:format><dc:type
           rdf:resource="http://purl.org/dc/dcmitype/StillImage" /><dc:title></dc:title></cc:Work></rdf:RDF></metadata><defs
     id="defs5"><linearGradient
       x1="0"
       y1="0"
       x2="1"
       y2="0"
       id="linearGradient361-4"
       gradientUnits="userSpaceOnUse"
       gradientTransform="matrix(-46.69757,-121.41248,121.41248,-46.69757,612.5918,-150.60742)"
       spreadMethod="pad"><stop
         id="stop363-1"
         style="stop-color:#ed1c24;stop-opacity:1"
         offset="0" /><stop
         id="stop365-6"
         style="stop-color:#ffffff;stop-opacity:1"
         offset="1" /></linearGradient><linearGradient
       x1="0"
       y1="0"
       x2="1"
       y2="0"
       id="linearGradient381-9"
       gradientUnits="userSpaceOnUse"
       gradientTransform="matrix(137.27364,-183.43605,183.43605,137.27364,474.37695,-134.84961)"
       spreadMethod="pad"><stop
         id="stop383-6"
         style="stop-color:#ffffff;stop-opacity:1"
         offset="0" /><stop
         id="stop385-0"
         style="stop-color:#ed1c24;stop-opacity:1"
         offset="1" /></linearGradient><linearGradient
       x1="0"
       y1="0"
       x2="1"
       y2="0"
       id="linearGradient403-5"
       gradientUnits="userSpaceOnUse"
       gradientTransform="matrix(0,-72.63802,72.63802,0,406.75,-147.30566)"
       spreadMethod="pad"><stop
         id="stop405-8"
         style="stop-color:#ed1c24;stop-opacity:1"
         offset="0" /><stop
         id="stop407-7"
         style="stop-color:#ffffff;stop-opacity:1"
         offset="1" /></linearGradient><linearGradient
       x1="0"
       y1="0"
       x2="1"
       y2="0"
       id="linearGradient425-2"
       gradientUnits="userSpaceOnUse"
       gradientTransform="matrix(47.73405,-136.97577,136.97577,47.73405,222.75879,-147.92188)"
       spreadMethod="pad"><stop
         id="stop427-7"
         style="stop-color:#ed1c24;stop-opacity:1"
         offset="0" /><stop
         id="stop429-0"
         style="stop-color:#ffffff;stop-opacity:1"
         offset="1" /></linearGradient><radialGradient
       cx="0"
       cy="0"
       r="1"
       fx="0"
       fy="0"
       id="radialGradient449-4"
       gradientUnits="userSpaceOnUse"
       gradientTransform="matrix(103.8253,0,0,103.8253,354.93311,-314.05225)"
       spreadMethod="pad"><stop
         id="stop451-5"
         style="stop-color:#ffffff;stop-opacity:1"
         offset="0" /><stop
         id="stop453-2"
         style="stop-color:#176fc1;stop-opacity:1"
         offset="1" /></radialGradient><linearGradient
       x1="0"
       y1="0"
       x2="1"
       y2="0"
       id="linearGradient471-6"
       gradientUnits="userSpaceOnUse"
       gradientTransform="matrix(56.0011,-128.00238,128.00238,56.0011,185.77002,-194.41602)"
       spreadMethod="pad"><stop
         id="stop473-7"
         style="stop-color:#ffffff;stop-opacity:1"
         offset="0" /><stop
         id="stop475-1"
         style="stop-color:#ed1c24;stop-opacity:1"
         offset="1" /></linearGradient><linearGradient
       x1="0"
       y1="0"
       x2="1"
       y2="0"
       id="linearGradient491-5"
       gradientUnits="userSpaceOnUse"
       gradientTransform="matrix(48.59036,-82.60378,82.60378,48.59036,384.21094,-160.90137)"
       spreadMethod="pad"><stop
         id="stop493-6"
         style="stop-color:#ffffff;stop-opacity:1"
         offset="0" /><stop
         id="stop495-0"
         style="stop-color:#ed1c24;stop-opacity:1"
         offset="1" /></linearGradient></defs><rect
     width="778.94177"
     height="490.49902"
     x="-40.996933"
     y="-38.287151"
     id="rect3120"
     style="fill:#ffffff;fill-opacity:1;fill-rule:nonzero" /><g
     transform="matrix(1.2485195,0,0,1.2511782,-181.84857,474.43849)"
     id="g13"><path
       d="m 706.31543,-43.50977 -560.66406,0 0,-335.68359 560.66406,0 z"
       id="path345"
       style="fill:#ffffff;fill-opacity:1;fill-rule:nonzero;stroke:none" /><path
       d="m 654.12246,-323.44068 c 0,0 -37.23468,0 -37.23468,0 0,0 -26.65663,61.96925 -26.65663,61.96925 0,0 -26.65559,-61.96925 -26.65559,-61.96925 0,0 -37.23467,0 -37.23467,0 0,0 -21.71658,0 -21.71658,0 0,0 0,218.68682 0,218.68682 0,0 59.20545,0 59.20545,0 0,0 0,-142.26728 0,-142.26728 0,0 26.35659,53.72579 26.35659,53.72579 0,0 26.44828,-53.83673 26.44828,-53.83673 0,0 0,142.37822 0,142.37822 0,0 59.20545,0 59.20545,0 0,0 0,-218.68682 0,-218.68682 0,0 -21.71762,0 -21.71762,0 z"
       id="path347"
       style="fill:#ed1c24;fill-opacity:1;fill-rule:nonzero;stroke:none" /><path
       d="m 433.8709,-104.75386 c 0,0 -59.20545,0 -59.20545,0 0,0 0,-99.20914 0,-99.20914 0,0 59.20545,0 59.20545,0 0,0 0,99.20914 0,99.20914 z"
       id="path389"
       style="fill:#ed1c24;fill-opacity:1;fill-rule:nonzero;stroke:none" /><path
       d="m 232.7857,-162.89255 c 0,0 0,-160.54813 0,-160.54813 0,0 -59.20545,0 -59.20545,0 0,0 0,160.54813 0,160.54813 0,0 0,58.13869 0,58.13869 0,0 59.20545,0 59.20545,0 0,0 72.54003,0 72.54003,0 0,0 0,-58.13869 0,-58.13869 0,0 -72.54003,0 -72.54003,0 z"
       id="path411"
       style="fill:#ed1c24;fill-opacity:1;fill-rule:nonzero;stroke:none" /><path
       d="m 475.0497,-277.16662 c 0,24.02409 -32.58633,43.49985 -72.78276,43.49985 -40.1964,0 -72.78222,-19.47576 -72.78222,-43.49985 0,-24.02409 32.58582,-43.49931 72.78222,-43.49931 40.19643,0 72.78276,19.47522 72.78276,43.49931 z"
       id="path435"
       style="fill:none;stroke:#176fc1;stroke-width:4.2670598;stroke-linecap:butt;stroke-linejoin:miter;stroke-miterlimit:4;stroke-opacity:1;stroke-dasharray:none" /><path
       d="m 380.91706,-236.19305 c 0,0 0,-9.36441 0,-9.36441 0,0 47.27416,0 47.27416,0 0,0 0,-7.45225 0,-7.45225 0,0 -13.39707,-3.32271 -13.39707,-3.32271 0,0 13.39707,-3.35498 13.39707,-3.35498 0,0 0,-7.41996 0,-7.41996 0,0 -47.27416,0 -47.27416,0 0,0 0,-8.90551 0,-8.90551 0,0 21.44626,0 21.44626,0 0,0 0,-7.45225 0,-7.45225 0,0 -21.44626,0 -21.44626,0 0,0 0,-8.72789 0,-8.72789 0,0 12.56783,0 12.56783,0 0,0 0,-9.13 0,-9.13 0,0 34.70633,0 34.70633,0 0,0 0,-7.45225 0,-7.45225 0,0 -34.70633,0 -34.70633,0 0,0 -12.56783,0 -12.56783,0 0,0 0,-9.74517 0,-9.74517 0,0 -51.51515,8.39973 -51.51515,41.6679 0,33.26869 51.51515,40.65948 51.51515,40.65948 z"
       id="path457"
       style="fill:#176fc1;fill-opacity:1;stroke:#176fc1;stroke-width:3.20029497;stroke-linecap:butt;stroke-linejoin:miter;stroke-miterlimit:6;stroke-opacity:1;stroke-dasharray:none" /></g></svg>